PathFileType	4	(X/Y/Z)	Patient4_TMGait_0pt7_02_left_07.trc.trc
DataRate	CameraRate	NumFrames	NumMarkers	Units	OrigDataRate	OrigDataStartFrame	OrigNumFrames
85.889570552147	85.889570552147	5	33	mm	85.889570552147	89	       141
Frame#	Time	Sacral			L.Shoulder			Chest			R.Shoulder			Neck			R.ASIS			L.ASIS			R.Thigh.Superior			R.Thigh.Lateral			R.Thigh.Inferior			R.Patella			L.Thigh.Superior			L.Thigh.Lateral			L.Thigh.Inferior			L.Patella			L.Shank.Superior			L.Shank.Lateral			L.Shank.Inferior			R.Shank.Superior			R.Shank.Lateral			R.Shank.Inferior			R.Heel			R.Midfoot.Superior			R.Midfoot.Lateral			R.Toe			L.Heel			L.Midfoot.Lateral			L.Midfoot.Superior			L.Toe			L.Elbow			L.Wrist			R.Elbow			R.Wrist			
		X1	Y1	Z1	X2	Y2	Z2	X3	Y3	Z3	X4	Y4	Z4	X5	Y5	Z5	X6	Y6	Z6	X7	Y7	Z7	X8	Y8	Z8	X9	Y9	Z9	X10	Y10	Z10	X11	Y11	Z11	X12	Y12	Z12	X13	Y13	Z13	X14	Y14	Z14	X15	Y15	Z15	X16	Y16	Z16	X17	Y17	Z17	X18	Y18	Z18	X19	Y19	Z19	X20	Y20	Z20	X21	Y21	Z21	X22	Y22	Z22	X23	Y23	Z23	X24	Y24	Z24	X25	Y25	Z25	X26	Y26	Z26	X27	Y27	Z27	X28	Y28	Z28	X29	Y29	Z29	X30	Y30	Z30	X31	Y31	Z31	X32	Y32	Z32	X33	Y33	Z33	

89	8.614571428571	790.608422682426	1000.512016161370	508.012693003462	1004.163444626065	1417.898298229440	326.793465964440	1094.612542890954	1341.725766861601	493.638364585159	1008.550124704431	1431.046346258601	659.689278447348	1005.426189774150	1480.147710143962	478.154753035547	1013.014490404491	928.291262854833	632.625115228342	1008.181741584541	953.663877532027	357.691548992796	1083.297681617850	749.820651039387	607.734598821290	1017.183966462786	631.016981929999	664.841043383349	1109.044817901057	590.681109113833	591.579160091780	1126.364615929472	499.341080738360	601.015372232551	1031.846497631447	730.995083667166	375.549254818152	934.278274308020	624.617068600942	308.132231847388	1012.827024593388	532.410126469051	364.488130449720	999.155146829412	448.838623959216	361.491320535802	930.255494550941	394.249170144344	353.337043367984	790.853561407220	352.121290888088	300.684284794134	775.674997321904	223.466952836251	356.118465101810	1097.792388695669	408.098940352493	606.590129014339	1026.102672339337	303.068941444507	665.583718714081	1073.580542223809	208.380222361020	606.423029310344	945.288126485010	43.680501538707	572.379621211645	1115.070979707770	99.046018195186	616.179253633740	1025.347654387438	37.053766875649	650.218862822884	1233.728604567672	45.367103861713	648.880246132613	584.950852517381	152.288605035475	387.835619173911	647.364287873403	107.559016470970	311.754860698682	749.565200648982	123.315987605415	336.295664327798	835.133947641147	30.933498189660	316.014502950683	966.629214922307	1078.309879560293	196.354970386091	1215.358139028979	1033.923031709864	225.795978097773	858.063535816397	1119.507303744060	773.607177344310	825.908077136418	859.326372349467	776.038463348296	
90	8.626214285714	789.931164896262	1002.508917436206	511.938803775116	1003.476976333968	1418.646926802959	328.532673854350	1095.277497115158	1342.539932308308	494.673755549193	1011.152790218453	1432.494754040217	661.315061320321	1006.269776092399	1481.166608228085	479.686661534596	1012.851442470753	929.628757857210	635.301339195552	1006.904961743237	954.667884931240	360.374239014401	1080.728940301342	748.767625918094	611.347730967525	1012.531601769008	631.153449093788	667.235226306305	1103.680493136655	589.876927755969	593.580107835053	1119.741883236262	498.618828402943	602.479672589709	1035.933681901724	734.153483382913	378.930619414222	943.398396046593	625.258806124401	310.382131607168	1024.811490748323	534.944428538690	367.085022675949	1012.459881136063	450.085070963047	363.381712924082	941.661442991642	395.766286315894	355.000756192586	800.797792055650	358.790911658849	302.082901661735	781.298912730575	230.385858012319	356.704128372751	1090.823237386126	407.752164285341	607.952565666080	1018.951842917054	302.813334337316	666.659964789941	1066.043561714746	208.176668335594	607.050972241510	937.276154610220	43.686313708317	572.564624060402	1107.083399112453	98.926491385334	616.428801634082	1017.318928002079	36.999997227658	650.378380935194	1225.748917776674	44.997800004753	649.106103362084	588.020580926457	168.764877725242	387.794659865571	648.005888143556	120.256811291633	311.838356516535	751.149442601150	129.690916338980	336.626831400080	830.411404083661	30.304366198278	316.439226934317	959.734965736696	1077.639830609536	202.859245505741	1206.444934236284	1018.471244612134	229.249266694357	866.054799703463	1118.079599793715	776.852694781310	843.841486356816	856.761940188629	778.016362494678	
91	8.637857142857	789.069544049207	1004.393654872104	515.768334421842	1002.470924189343	1419.255961005869	330.118257931761	1095.763509060416	1343.176876953479	495.468491035168	1013.718607790568	1433.708246870494	662.766087507409	1006.939330108173	1482.049495063531	481.094731631776	1012.550452650528	930.843822153129	637.779411691401	1005.287030593016	955.458537428121	362.871077324446	1077.939098195508	747.770259625622	614.588295793593	1007.858301232322	631.345237862504	669.567933558582	1098.184785997433	589.114891445338	595.449934902109	1112.952267575390	497.944482019514	603.914414662768	1039.797021955688	737.609490152371	382.321779573742	952.493210425036	626.376153678236	312.454234258243	1036.565579763249	538.102990827574	369.681769308740	1025.743970308477	452.037822232503	365.332713202041	953.343556637565	397.809543455307	356.663494325068	811.324790283810	365.516106643519	303.436991508210	787.874660884837	237.452241504444	357.392917915381	1083.747631933023	407.437314964631	609.277974196453	1011.727070101910	302.578388380781	667.729275218601	1058.447281127855	207.997025532131	607.672673398298	929.215201898418	43.710187539650	572.749023252635	1099.061314981536	98.753990780594	616.673266991170	1009.243985277063	36.948222917546	650.527766272906	1217.731768120396	44.581626289596	649.300752901270	592.599152146091	184.569045551473	387.843266597961	650.315174028394	132.794467505692	311.999926448434	754.072794300377	136.441650046664	337.132492510108	827.424589600554	30.287537179868	316.949616461890	953.037771416909	1076.946616172070	209.207132782003	1196.531184059485	1002.112069905581	232.545572227249	874.298929453442	1116.550549181048	780.186214333892	862.802911940346	854.440118816632	780.055250798269	
92	8.649500000000	788.049129370610	1006.151290749913	519.487414626880	1001.172623171978	1419.744391519161	331.552091282004	1096.057511560786	1343.647222564073	496.033060357783	1016.205831793625	1434.696636438382	664.042767421475	1007.449972918852	1482.812000011229	482.381297986789	1012.121299851355	931.962035719489	640.069178260864	1003.332598964723	956.059792637323	365.206859000408	1074.988131144941	746.878742441303	617.422869848586	1003.230855160043	631.600535128459	671.827396862167	1092.632141462178	588.405723505270	597.184825976208	1106.072438396069	497.324037322637	605.305717377085	1043.385431023145	741.379241165242	385.673087487389	961.375140115679	628.023085067670	314.342226525345	1047.929995158949	541.907681383717	372.179205593377	1038.853509116118	454.729045673283	367.213676256633	965.165289974579	400.393539980099	358.243358634127	822.259302432894	372.153660795025	304.733987682649	795.399906216347	244.454049929428	358.150795240921	1076.632417887198	407.157938792985	610.560795369442	1004.471193534271	302.379202303296	668.789719212395	1050.814811838197	207.844969025741	608.288667779914	921.105018125176	43.752404393078	572.942169695612	1091.005197719492	98.563068256115	616.917274816634	1001.124812382443	36.903493367479	650.675268604434	1209.673332820390	44.151810835060	649.473629340769	598.658426659498	199.073983218746	388.008558658630	654.390258798187	144.646843539864	312.252904427041	758.483671611507	143.321645461259	337.765482823855	826.620605675462	31.041303980562	317.511661162229	946.582264699646	1076.224245455701	215.373178538183	1185.471601293978	984.976694588751	235.641932956351	882.833818527205	1114.909574972118	783.577155104122	882.758873684177	852.457239098916	782.073076897772	
93	8.661142857143	786.901289816966	1007.780876056750	523.090636564951	999.615419706723	1420.139883365412	332.840363641381	1096.152166230718	1343.977494828675	496.385846160431	1018.572564795902	1435.488592989200	665.150013718790	1007.816844704518	1483.477005155132	483.548759706462	1011.576644087224	933.009715308263	642.183725477611	1001.055100207822	956.508237424519	367.410164649544	1071.923689407277	746.115636124220	619.862834679738	998.666232755946	631.912688207756	673.996833719595	1087.060871959092	587.748766814634	598.788102449273	1099.144034613683	496.757276816270	606.630732912710	1046.662997191643	745.466465821934	388.926454984353	969.876483837197	630.223244087011	316.039548053865	1058.783274904627	546.354510021371	374.473384888528	1051.661363732638	458.168629257005	368.897341202902	977.014492448307	403.513034909683	359.659095628643	833.446286555197	378.549856177398	305.959099136504	803.881486575780	251.168539281379	358.938181887484	1069.514153625893	406.914978943884	611.788456309088	997.204582552503	302.223854714618	669.830817843975	1043.159309365795	207.722339357203	608.894890994413	912.950823809061	43.810287263680	573.147943592969	1082.918564356900	98.380380508992	617.162257237552	992.968397488382	36.868116467436	650.825682388159	1201.575064633274	43.737556772513	649.632553924335	606.157390825119	211.711654836669	388.323181644886	660.290176772572	155.319320001291	312.606721568409	764.514354103046	150.055090608509	338.466381119187	828.399584036274	32.637839732863	318.061544282907	940.394412414565	1075.483694421878	221.334101164709	1173.115078802725	967.248835411188	238.510469401451	891.700385648513	1113.164870538733	786.987424892182	903.684957797599	850.925996199895	783.979537023405	
